<svg fill="#4682b4" xmlns="http://www.w3.org/2000/svg"  viewBox="0 0 50 50" width="50px" height="50px"><path d="M 25 2 C 12.317 2 2 12.318 2 25 C 2 37.682 12.317 48 25 48 C 25.553 48 26 47.552 26 47 L 26 39 C 26 38.448 25.553 38 25 38 C 17.832 38 12 32.168 12 25 C 12 17.832 17.832 12 25 12 C 25.553 12 26 11.552 26 11 L 26 3 C 26 2.448 25.553 2 25 2 z M 25 20 C 24.447 20 24 20.448 24 21 L 24 30 C 24 30.552 24.447 31 25 31 L 35 31 L 35 41 C 35 41.552 35.447 42 36 42 L 45 42 C 45.553 42 46 41.552 46 41 L 46 21 C 46 20.448 45.553 20 45 20 L 25 20 z"/></svg>