<svg width="28" height="28" viewBox="0 0 28 28" fill="none" xmlns="http://www.w3.org/2000/svg">
<path d="M1 7.5C1 5.77609 1.68482 4.12279 2.90381 2.90381C4.12279 1.68482 5.77609 1 7.5 1H20.5C22.2239 1 23.8772 1.68482 25.0962 2.90381C26.3152 4.12279 27 5.77609 27 7.5V20.5C27 22.2239 26.3152 23.8772 25.0962 25.0962C23.8772 26.3152 22.2239 27 20.5 27H7.5C5.77609 27 4.12279 26.3152 2.90381 25.0962C1.68482 23.8772 1 22.2239 1 20.5V7.5Z" stroke="#EBEBEB" stroke-width="2" stroke-linecap="round" stroke-linejoin="round"/>
<path d="M9 14C9 15.3261 9.52678 16.5979 10.4645 17.5355C11.4021 18.4732 12.6739 19 14 19C15.3261 19 16.5979 18.4732 17.5355 17.5355C18.4732 16.5979 19 15.3261 19 14C19 12.6739 18.4732 11.4021 17.5355 10.4645C16.5979 9.52678 15.3261 9 14 9C12.6739 9 11.4021 9.52678 10.4645 10.4645C9.52678 11.4021 9 12.6739 9 14Z" stroke="#EBEBEB" stroke-width="2" stroke-linecap="round" stroke-linejoin="round"/>
<circle cx="22" cy="8" r="0.5" fill="white" stroke="#EBEBEB"/>
</svg>
