<svg width="20" height="21" viewBox="0 0 20 21" fill="none" xmlns="http://www.w3.org/2000/svg">
<path d="M10.4545 0C4.68955 0 0 4.71039 0 10.5C0 16.2896 4.68955 21 10.4545 21C10.7059 21 10.9091 20.7955 10.9091 20.5435V16.8913C10.9091 16.6393 10.7059 16.4348 10.4545 16.4348C7.19636 16.4348 4.54545 13.7723 4.54545 10.5C4.54545 7.22765 7.19636 4.56522 10.4545 4.56522C10.7059 4.56522 10.9091 4.3607 10.9091 4.1087V0.456522C10.9091 0.204522 10.7059 0 10.4545 0ZM10.4545 8.21739C10.2032 8.21739 10 8.42191 10 8.67391V12.7826C10 13.0346 10.2032 13.2391 10.4545 13.2391H15V17.8043C15 18.0563 15.2032 18.2609 15.4545 18.2609H19.5455C19.7968 18.2609 20 18.0563 20 17.8043V8.67391C20 8.42191 19.7968 8.21739 19.5455 8.21739H10.4545Z" fill="#4682B4"/>
</svg>
