<svg width="159" height="48" viewBox="0 0 159 48" fill="none" xmlns="http://www.w3.org/2000/svg">
<path d="M0 33.9527V0.703125H5.84068V33.9527H0Z" fill="black"/>
<path d="M20.7913 9.83154C13.3028 9.83154 8.12061 15.5893 8.12061 22.1795C8.12061 29.5346 13.7582 34.6015 20.8495 34.6015C27.5795 34.6015 33.4196 29.6279 33.4196 22.1636C33.4196 15.8869 28.5803 9.83154 20.7913 9.83154ZM20.7225 15.4659C24.6415 15.4659 27.5261 18.5165 27.5261 22.2007C27.5261 26.107 24.3457 28.9566 20.8283 28.9566C16.6721 28.9566 14.0565 25.6624 14.0565 22.2112C14.0565 18.4283 17.0096 15.4659 20.7225 15.4659Z" fill="black"/>
<path d="M48.0948 9.83154C40.6062 9.83154 35.4241 15.5893 35.4241 22.1795C35.4241 29.5346 41.0617 34.6015 48.153 34.6015C54.883 34.6015 60.7231 29.6279 60.7231 22.1636C60.7231 17.7681 58.8196 15.8178 58.8196 15.8178L60.4385 15.2627V10.5224H52.143C52.143 10.5224 50.3446 9.83154 48.0948 9.83154ZM48.026 15.4659C51.9449 15.4659 54.8295 18.5165 54.8295 22.2007C54.8295 26.107 51.6492 28.9566 48.1318 28.9566C43.9756 28.9566 41.36 25.6624 41.36 22.2112C41.36 18.4283 44.313 15.4659 48.026 15.4659Z" fill="black"/>
<path d="M54.7883 35.5779C54.7883 39.4842 51.6079 42.355 48.0905 42.355C43.9343 42.355 41.3081 39.0291 41.3081 35.5779H35.3828C35.3828 42.933 41.0204 47.9999 48.1117 47.9999C54.8417 47.9999 60.6819 43.0421 60.6819 35.5779H54.7883Z" fill="black"/>
<path d="M63.0625 33.9532V10.5227H68.9032V33.9532H63.0625Z" fill="black"/>
<path d="M74.5743 33.9529V15.7706H71.4424V10.5224H74.5743V3.32739H80.415V10.5224H83.6316V15.7706H80.415V33.9529H74.5743Z" fill="black"/>
<path d="M69.8381 3.86768C69.8381 6.00374 68.1065 7.73536 65.9705 7.73536C63.8344 7.73536 62.1028 6.00374 62.1028 3.86768C62.1028 1.73162 63.8344 0 65.9705 0C68.1065 0 69.8381 1.73162 69.8381 3.86768Z" fill="black"/>
<path d="M96.7628 9.81567C89.2389 9.81567 84.3884 15.5764 84.3884 22.3911C84.3884 29.4334 89.255 34.6174 96.8845 34.6174C104.002 34.6174 107.503 30.1734 107.503 30.1734L103.598 26.2638C103.598 26.2638 100.65 29.4433 96.9586 29.4433C93.8813 29.4433 91.4208 27.7257 90.5624 24.5761H108.762V22.9678C108.762 16.5504 105.047 9.81567 96.7628 9.81567ZM96.5777 14.958C99.2683 14.958 102.02 16.3974 102.635 19.8358H90.4037C90.8882 17.4189 93.0026 14.958 96.5777 14.958Z" fill="black"/>
<path d="M123.371 34.6204C115.826 34.6204 110.684 28.8737 110.684 22.0979C110.684 15.1053 116.495 9.81128 123.347 9.81128C129.97 9.81128 133.361 14.4872 133.361 14.4872L129.286 18.5431C129.286 18.5431 126.926 15.4937 123.319 15.4937C119.321 15.4937 116.587 18.5521 116.587 22.1876C116.587 26.0263 119.495 28.9714 123.274 28.9714C126.939 28.9714 129.281 25.9269 129.281 25.9269L133.396 29.9806C133.396 29.9806 130.038 34.6204 123.371 34.6204Z" fill="black"/>
<path d="M135.521 33.9696V0.618408H141.361V12.8718C141.361 12.8718 143.598 9.81101 148.463 9.81101C154.579 9.81101 158.122 14.3573 158.122 20.172V33.9696H152.281V21.0548C152.281 17.1484 149.849 15.5277 147.155 15.5277C144.085 15.5277 141.361 17.2747 141.361 21.3571V33.9696H135.521Z" fill="black"/>
</svg>
