<svg width="31" height="25" viewBox="0 0 31 25" fill="none" xmlns="http://www.w3.org/2000/svg">
<path d="M30 1.15868C28.55 1.86172 27.129 2.14724 25.65 2.5791C24.0245 0.764123 21.6146 0.66369 19.299 1.52168C16.9833 2.37967 15.4666 4.4773 15.5 6.8834V8.31817C10.7947 8.43726 6.60425 6.31667 3.9 2.5791C3.9 2.5791 -2.1639 13.2437 9.7 18.3615C6.9856 20.1507 4.27845 21.3573 1 21.2311C5.7966 23.818 11.0239 24.7075 15.5493 23.4076C20.7403 21.9155 25.0062 18.066 26.6432 12.2996C27.1316 10.5459 27.3741 8.73405 27.3639 6.91497C27.3639 6.55771 29.5534 2.93923 30 1.15868Z" stroke="#EBEBEB" stroke-width="2" stroke-linecap="round" stroke-linejoin="round"/>
</svg>
