<svg width="86" height="26" viewBox="0 0 86 26" fill="none" xmlns="http://www.w3.org/2000/svg">
<path d="M0 18.007V0.373047H3.1637V18.007H0Z" fill="#EBEBEB"/>
<path d="M11.2622 5.21387C7.20593 5.21387 4.39893 8.26748 4.39893 11.7627C4.39893 15.6635 7.45263 18.3507 11.2937 18.3507C14.9392 18.3507 18.1026 15.7129 18.1026 11.7542C18.1026 8.42534 15.4813 5.21387 11.2622 5.21387ZM11.225 8.20206C13.3477 8.20206 14.9102 9.81994 14.9102 11.7739C14.9102 13.8456 13.1875 15.3569 11.2823 15.3569C9.031 15.3569 7.61421 13.6098 7.61421 11.7795C7.61421 9.77319 9.21379 8.20206 11.225 8.20206Z" fill="#EBEBEB"/>
<path d="M26.0513 5.21387C21.995 5.21387 19.188 8.26748 19.188 11.7627C19.188 15.6635 22.2417 18.3507 26.0828 18.3507C29.7282 18.3507 32.8916 15.7129 32.8916 11.7542C32.8916 9.42305 31.8606 8.3887 31.8606 8.3887L32.7375 8.09428V5.58027H28.2441C28.2441 5.58027 27.27 5.21387 26.0513 5.21387ZM26.014 8.20206C28.1368 8.20206 29.6993 9.81994 29.6993 11.7739C29.6993 13.8456 27.9766 15.3569 26.0713 15.3569C23.8201 15.3569 22.4033 13.6098 22.4033 11.7795C22.4033 9.77319 24.0029 8.20206 26.014 8.20206Z" fill="#EBEBEB"/>
<path d="M29.6768 18.8691C29.6768 20.9409 27.9541 22.4634 26.0489 22.4634C23.7976 22.4634 22.3751 20.6995 22.3751 18.8691H19.1655C19.1655 22.77 22.2192 25.4572 26.0603 25.4572C29.7058 25.4572 32.8692 22.8278 32.8692 18.8691H29.6768Z" fill="#EBEBEB"/>
<path d="M34.1587 18.007V5.58057H37.3224V18.007H34.1587Z" fill="#EBEBEB"/>
<path d="M40.3947 18.0074V8.36442H38.6982V5.58104H40.3947V1.76514H43.5584V5.58104H45.3008V8.36442H43.5584V18.0074H40.3947Z" fill="#EBEBEB"/>
<path d="M37.8292 2.05124C37.8292 3.1841 36.8912 4.10247 35.7342 4.10247C34.5771 4.10247 33.6392 3.1841 33.6392 2.05124C33.6392 0.91837 34.5771 0 35.7342 0C36.8912 0 37.8292 0.91837 37.8292 2.05124Z" fill="#EBEBEB"/>
<path d="M52.4133 5.20557C48.3378 5.20557 45.7104 8.26078 45.7104 11.875C45.7104 15.6099 48.3465 18.3592 52.4792 18.3592C56.3343 18.3592 58.2306 16.0024 58.2306 16.0024L56.1157 13.9289C56.1157 13.9289 54.5189 15.6151 52.5193 15.6151C50.8524 15.6151 49.5197 14.7042 49.0547 13.0338H58.9126V12.1808C58.9126 8.77737 56.9007 5.20557 52.4133 5.20557ZM52.313 7.93282C53.7704 7.93282 55.2608 8.69623 55.5942 10.5198H48.9687C49.2311 9.23794 50.3764 7.93282 52.313 7.93282Z" fill="#EBEBEB"/>
<path d="M66.826 18.3612C62.7389 18.3612 59.9541 15.3134 59.9541 11.7199C59.9541 8.01131 63.1015 5.20361 66.8128 5.20361C70.4007 5.20361 72.2372 7.6835 72.2372 7.6835L70.0302 9.83457C70.0302 9.83457 68.7518 8.2173 66.7978 8.2173C64.6322 8.2173 63.1514 9.83935 63.1514 11.7674C63.1514 13.8033 64.7266 15.3652 66.7735 15.3652C68.7589 15.3652 70.0271 13.7506 70.0271 13.7506L72.2562 15.9005C72.2562 15.9005 70.4375 18.3612 66.826 18.3612Z" fill="#EBEBEB"/>
<path d="M73.4072 18.016V0.328125H76.5709V6.82673C76.5709 6.82673 77.7823 5.20345 80.4175 5.20345C83.7302 5.20345 85.6494 7.61461 85.6494 10.6984V18.016H82.4857V11.1666C82.4857 9.09483 81.1683 8.23531 79.7089 8.23531C78.0461 8.23531 76.5709 9.16181 76.5709 11.3269V18.016H73.4072Z" fill="#EBEBEB"/>
</svg>
