<svg fill="#4682b4" xmlns="http://www.w3.org/2000/svg"  viewBox="0 0 50 50" width="50px" height="50px"><path d="M 25 2 C 12.308633 2 2 12.308633 2 25 C 2 37.691367 12.308633 48 25 48 A 1.0001 1.0001 0 0 0 26 47 L 26 38 A 1.0001 1.0001 0 0 0 25 37 C 18.33587 37 13 31.66413 13 25 C 13 18.33587 18.33587 13 25 13 A 1.0001 1.0001 0 0 0 26 12 L 26 3 A 1.0001 1.0001 0 0 0 25 2 z M 24 4.0996094 L 24 11.101562 C 16.738777 11.622755 11 17.604863 11 25 C 11 32.395137 16.738777 38.377246 24 38.898438 L 24 45.900391 C 12.865189 45.368744 4 36.268072 4 25 C 4 13.731928 12.865189 4.6312557 24 4.0996094 z M 25 19 A 1.0001 1.0001 0 0 0 24 20 L 24 30 A 1.0001 1.0001 0 0 0 25 31 L 35 31 L 35 41 A 1.0001 1.0001 0 0 0 36 42 L 46 42 A 1.0001 1.0001 0 0 0 47 41 L 47 20 A 1.0001 1.0001 0 0 0 46 19 L 25 19 z M 26 21 L 45 21 L 45 40 L 37 40 L 37 30 A 1.0001 1.0001 0 0 0 36 29 L 26 29 L 26 21 z"/></svg>